<mxfile host="app.diagrams.net" modified="2024-03-15T12:15:24.130Z" agent="Mozilla/5.0 (X11; Ubuntu; Linux x86_64; rv:123.0) Gecko/20100101 Firefox/123.0" version="24.0.7" etag="3VISnWhn2uYtpdhV3D-8" type="github">
  <diagram name="Strona-1" id="-GACnwaTdPc3KBa1U1Un">
    <mxGraphModel>
      <root>
        <mxCell id="0" />
        <mxCell id="1" parent="0" />
      </root>
    </mxGraphModel>
  </diagram>
</mxfile>
